<svg width="256" height="256" viewBox="0 0 256 256" fill="none" xmlns="http://www.w3.org/2000/svg">
<path d="M9.93466 117.806C10.8131 111.748 14.5651 104.583 19.1784 100.153C21.5783 97.8486 25.9856 94.793 27.622 94.2992C28.1351 94.1444 28.7229 93.8958 28.9281 93.7469C29.6055 93.2558 32.9929 92.2956 35.4588 91.8955C38.6007 91.3862 216.909 91.3608 220.824 91.8694C229.017 92.9338 236.951 97.9799 241.661 105.122C244.707 109.74 246.034 113.28 246.9 119.092C247.396 122.424 247.396 123.263 246.9 126.596C246.232 131.081 245.906 132.203 244.036 136.465C240.128 145.376 230.533 152.558 220.858 153.814C216.915 154.326 38.626 154.305 35.4588 153.793C24.5933 152.033 15.6496 144.573 11.5539 133.853C10.3116 130.601 9.98167 128.651 9.88054 123.964C9.82083 121.193 9.84547 118.422 9.93466 117.806ZM37.5573 107.696C37.2748 107.588 36.225 107.551 35.2249 107.614C34.6188 107.653 34.0124 107.692 33.4063 107.73C33.3716 109.503 33.3377 111.275 33.303 113.048C33.2459 115.973 33.0779 118.365 32.9298 118.363C32.7816 118.362 31.2325 116.004 29.4879 113.124C27.422 109.713 26.0472 107.819 25.5449 107.692C25.1209 107.585 23.9454 107.549 22.9326 107.614C22.3187 107.652 21.7052 107.691 21.0913 107.73C21.0913 110.405 21.0913 113.079 21.0913 115.753C21.0913 118.428 21.0913 121.102 21.0913 123.777C21.931 123.814 22.7706 123.85 23.6103 123.887C24.45 123.924 25.2896 123.961 26.1293 123.997C26.1293 122.24 26.1293 120.482 26.1293 118.725C26.1293 115.518 26.2696 113.501 26.4875 113.577C26.6846 113.645 28.2497 115.968 29.9656 118.739C31.0057 120.418 32.0453 122.098 33.0854 123.777C33.9165 123.814 34.7472 123.85 35.5782 123.887C36.4093 123.924 37.24 123.961 38.0711 123.997C38.0711 121.314 38.0711 118.629 38.0711 115.945C38.0711 109.452 37.9719 107.855 37.5573 107.696ZM30.5186 129.734C30.2358 129.625 27.9989 129.584 25.5479 129.642C24.0622 129.677 22.577 129.713 21.0913 129.748C21.0559 130.956 21.02 132.165 20.9846 133.373C20.889 136.621 20.9584 137.079 21.65 137.77C22.353 138.473 22.7945 138.532 26.6077 138.436C28.003 138.401 29.3987 138.366 30.7941 138.331C30.7941 138.02 30.7941 137.709 30.7941 137.398C30.7941 136.474 30.7594 136.464 27.1555 136.358C24.3022 136.275 23.517 136.137 23.517 135.719C23.517 135.301 24.3022 135.163 27.1555 135.079C30.7594 134.974 30.7941 134.963 30.7941 134.039C30.7941 133.115 30.7594 133.105 27.1555 133C24.3022 132.916 23.517 132.778 23.517 132.36C23.517 131.942 24.3022 131.804 27.1555 131.72C30.6093 131.619 30.8 131.571 30.9135 130.773C30.9795 130.308 30.8023 129.843 30.5186 129.734ZM44.5574 107.437C44.4107 107.29 43.2177 107.17 41.9059 107.17C41.1111 107.17 40.3158 107.17 39.5209 107.17C39.5594 107.699 39.5974 108.228 39.6359 108.756C39.6743 109.285 39.712 109.814 39.7504 110.342C40.5591 110.342 41.3674 110.342 42.1761 110.342C42.9848 110.342 43.7931 110.342 44.6018 110.342C44.6388 109.902 44.6761 109.463 44.713 109.023C44.7742 108.297 44.7041 107.583 44.5574 107.437ZM44.5496 113.027C44.4074 112.884 43.227 112.768 41.9272 112.768C41.1394 112.768 40.3516 112.768 39.5638 112.768C39.5638 114.64 39.5638 116.511 39.5638 118.383C39.5638 120.254 39.5638 122.126 39.5638 123.997C40.4035 123.961 41.2432 123.924 42.0828 123.887C42.9225 123.85 43.7621 123.814 44.6018 123.777C44.6361 122.028 44.6705 120.28 44.7048 118.531C44.7615 115.646 44.6917 113.169 44.5496 113.027ZM52.9096 129.734C52.6267 129.625 50.3899 129.584 47.9388 129.642C46.4532 129.677 44.9679 129.713 43.4823 129.748C43.4823 130.059 43.4823 130.37 43.4823 130.681C43.4823 131.528 43.6442 131.624 45.2407 131.727C45.827 131.764 46.4128 131.802 46.9991 131.84C47.0349 132.922 47.0708 134.004 47.1066 135.085C47.1425 136.167 47.1783 137.249 47.2141 138.331C47.5873 138.331 47.9605 138.331 48.3336 138.331C48.7068 138.331 49.08 138.331 49.4532 138.331C49.489 137.249 49.5248 136.167 49.5606 135.085C49.5965 134.004 49.6323 132.922 49.6682 131.84C50.2544 131.802 50.8403 131.764 51.4266 131.727C52.9256 131.63 53.2025 131.49 53.3044 130.773C53.3705 130.308 53.1932 129.843 52.9096 129.734ZM60.1042 114.746C58.6697 112.393 54.6744 111.455 52.4084 112.94C51.696 113.407 51.3109 113.49 51.2139 113.198C51.1239 112.928 50.1048 112.768 48.4792 112.768C47.6156 112.768 46.7517 112.768 45.8882 112.768C45.9225 114.603 45.9568 116.438 45.9912 118.272C46.0255 120.107 46.0602 121.942 46.0945 123.777C46.9342 123.814 47.7739 123.85 48.6135 123.887C49.4532 123.924 50.2928 123.961 51.1325 123.997C51.1325 122.632 51.1325 121.268 51.1325 119.903C51.1325 115.923 51.1601 115.786 52.1158 115.034C53.3899 114.032 53.95 114.059 55.0677 115.177C55.9246 116.034 55.9839 116.348 55.9839 120.028C55.9839 121.34 55.9839 122.652 55.9839 123.964C56.7926 123.964 57.6009 123.964 58.4096 123.964C59.2182 123.964 60.0266 123.964 60.8352 123.964C60.8349 122.626 60.8341 121.289 60.8337 119.952C60.8326 116.631 60.7072 115.734 60.1042 114.746ZM64.1051 129.734C63.8222 129.625 61.5854 129.584 59.1343 129.642C57.6486 129.677 56.1634 129.713 54.6777 129.748C54.6419 130.913 54.6057 132.078 54.5699 133.243C54.4867 135.94 54.5971 136.944 55.0528 137.64C55.629 138.519 55.751 138.538 60.012 138.436C61.4681 138.401 62.9243 138.366 64.3805 138.331C64.3805 138.02 64.3805 137.709 64.3805 137.398C64.3805 136.474 64.3458 136.464 60.742 136.358C57.8886 136.275 57.1034 136.137 57.1034 135.719C57.1034 135.301 57.8886 135.163 60.742 135.079C64.3458 134.974 64.3805 134.963 64.3805 134.039C64.3805 133.115 64.3458 133.105 60.742 133C57.8886 132.916 57.1034 132.778 57.1034 132.36C57.1034 131.942 57.8886 131.804 60.742 131.72C64.1958 131.619 64.3864 131.571 64.4999 130.773C64.5659 130.308 64.3887 129.843 64.1051 129.734ZM71.7781 111.27C70.3813 111.262 69.8939 110.907 69.736 109.783C69.6129 108.906 69.4707 108.85 67.3659 108.85C65.2612 108.85 65.119 108.906 64.9959 109.783C64.838 110.907 64.3506 111.262 62.9538 111.27C62.1537 111.274 61.9298 111.432 62.0239 111.928C62.1104 112.385 62.568 112.616 63.5438 112.697C64.0092 112.736 64.4749 112.775 64.9403 112.813C64.9403 114.672 64.9403 116.53 64.9403 118.388C64.9403 120.247 64.9403 122.105 64.9403 123.964C65.7456 123.964 66.5505 123.964 67.3559 123.964C68.1612 123.964 68.9665 123.964 69.7719 123.964C69.8062 122.129 69.8405 120.294 69.8749 118.459C69.9092 116.624 69.9439 114.79 69.9782 112.955C70.4122 112.892 70.8462 112.83 71.2803 112.768C72.9682 112.526 73.3828 111.278 71.7781 111.27ZM74.9561 130.248C74.3277 129.619 73.7619 129.549 70.0596 129.643C68.6642 129.678 67.2685 129.713 65.8732 129.748C65.8732 131.178 65.8732 132.609 65.8732 134.039C65.8732 135.47 65.8732 136.901 65.8732 138.331C66.2464 138.331 66.6196 138.331 66.9928 138.331C68.019 138.331 68.128 138.207 68.2989 136.838C68.3612 136.341 68.4232 135.843 68.4855 135.346C69.2554 135.309 70.0256 135.272 70.7955 135.235C71.5653 135.198 72.3356 135.162 73.1055 135.125C73.1439 135.659 73.1827 136.193 73.2211 136.728C73.3297 138.235 73.404 138.331 74.4564 138.331C74.8296 138.331 75.2028 138.331 75.576 138.331C75.5913 137.102 75.6062 135.874 75.6215 134.645C75.6603 131.481 75.5659 130.857 74.9561 130.248ZM86.742 115.09C84.5898 112.386 80.4923 111.584 77.2627 113.235C75.1345 114.322 74.2056 115.642 73.9978 117.872C73.8627 119.321 74.0011 119.927 74.706 120.978C75.895 122.751 78.3927 123.964 80.8554 123.964C83.262 123.964 84.2592 123.598 85.9837 122.084C87.9705 120.339 87.7779 119.858 85.0921 119.858C82.9918 119.858 82.853 119.913 82.853 120.734C82.853 121.725 81.7984 122.844 80.8643 122.844C79.7343 122.844 78.748 121.458 78.748 119.87C78.748 119.377 78.748 118.883 78.748 118.389C80.2098 118.354 81.6711 118.319 83.1329 118.284C87.5032 118.18 87.5182 118.176 87.6167 117.246C87.676 116.686 87.3267 115.825 86.742 115.09ZM86.496 129.734C86.2131 129.625 83.9763 129.584 81.5252 129.642C80.0396 129.677 78.5543 129.713 77.0687 129.748C77.0687 130.059 77.0687 130.37 77.0687 130.681C77.0687 131.528 77.2307 131.624 78.8271 131.727C79.4134 131.764 79.9993 131.802 80.5855 131.84C80.6214 132.922 80.6572 134.004 80.693 135.085C80.7289 136.167 80.7647 137.249 80.8005 138.331C81.1737 138.331 81.5469 138.331 81.9201 138.331C82.2932 138.331 82.6664 138.331 83.0396 138.331C83.0754 137.249 83.1112 136.167 83.1471 135.085C83.1829 134.004 83.2187 132.922 83.2546 131.84C83.8408 131.802 84.4267 131.764 85.013 131.727C86.512 131.63 86.7889 131.49 86.8908 130.773C86.9569 130.308 86.7796 129.843 86.496 129.734ZM97.4206 130.321C96.763 129.663 96.1838 129.561 93.1155 129.561C88.2369 129.561 88.013 129.793 88.1574 134.706C88.1929 135.914 88.2287 137.123 88.2642 138.331C88.6373 138.331 89.0105 138.331 89.3837 138.331C90.4338 138.331 90.5103 138.233 90.6178 136.745C90.6563 136.216 90.6943 135.688 90.7327 135.159C91.5269 135.159 92.3214 135.159 93.1155 135.159C93.9097 135.159 94.7042 135.159 95.4983 135.159C95.5367 135.688 95.5748 136.216 95.6132 136.745C95.7207 138.233 95.7972 138.331 96.8474 138.331C97.2205 138.331 97.5937 138.331 97.9669 138.331C98.0023 137.123 98.0382 135.914 98.0736 134.706C98.1688 131.475 98.0975 130.998 97.4206 130.321ZM103.511 115.103C102.246 112.537 98.0927 111.371 95.7319 112.918C94.9964 113.4 94.6023 113.471 94.3071 113.176C94.0828 112.952 92.8413 112.768 91.5482 112.768C90.7645 112.768 89.9808 112.768 89.1971 112.768C89.1971 114.64 89.1971 116.511 89.1971 118.383C89.1971 120.254 89.1971 122.126 89.1971 123.997C90.0368 123.961 90.8764 123.924 91.7161 123.887C92.5557 123.85 93.3954 123.814 94.2351 123.777C94.2701 122.379 94.3056 120.98 94.3407 119.582C94.3757 118.184 94.4108 116.785 94.4459 115.387C94.8079 115.2 95.1702 115.012 95.5322 114.825C96.8096 114.164 98.2542 114.547 98.8771 115.711C99.0946 116.118 99.273 118.141 99.273 120.207C99.273 121.459 99.273 122.711 99.273 123.964C100.082 123.964 100.89 123.964 101.699 123.964C102.507 123.964 103.316 123.964 104.124 123.964C104.121 122.688 104.119 121.414 104.116 120.138C104.11 117.401 103.938 115.969 103.511 115.103ZM112.336 130.309C111.632 129.606 111.191 129.547 107.378 129.643C105.982 129.678 104.587 129.713 103.191 129.748C103.191 131.178 103.191 132.609 103.191 134.039C103.191 135.47 103.191 136.901 103.191 138.331C103.565 138.331 103.938 138.331 104.311 138.331C104.684 138.331 105.057 138.331 105.431 138.331C105.466 137.242 105.503 136.154 105.538 135.066C105.574 133.977 105.61 132.889 105.646 131.8C106.445 131.8 107.244 131.8 108.043 131.8C108.842 131.8 109.64 131.8 110.439 131.8C110.475 132.889 110.511 133.977 110.547 135.066C110.583 136.154 110.619 137.242 110.655 138.331C111.028 138.331 111.401 138.331 111.775 138.331C112.148 138.331 112.521 138.331 112.894 138.331C112.93 137.123 112.965 135.914 113.001 134.706C113.096 131.457 113.027 131 112.336 130.309ZM119.294 107.327C119.009 107.217 117.872 107.179 116.768 107.242C116.099 107.28 115.43 107.319 114.76 107.357C114.724 108.263 114.687 109.17 114.65 110.076C114.613 110.983 114.577 111.889 114.54 112.796C114.079 112.703 113.618 112.61 113.157 112.518C109.874 111.858 107.345 112.991 105.876 115.78C103.955 119.43 106.789 124.233 110.773 124.078C111.734 124.04 114.116 123.957 116.066 123.893C117.248 123.854 118.43 123.816 119.611 123.777C119.645 121.068 119.679 118.36 119.712 115.651C119.795 108.994 119.719 107.49 119.294 107.327ZM127.266 130.312C126.543 129.589 126.132 129.549 120.442 129.645C118.424 129.68 116.405 129.713 114.387 129.748C114.387 131.178 114.387 132.609 114.387 134.039C114.387 135.47 114.387 136.901 114.387 138.331C114.76 138.331 115.133 138.331 115.506 138.331C115.88 138.331 116.253 138.331 116.626 138.331C116.662 137.242 116.698 136.154 116.734 135.066C116.77 133.977 116.806 132.889 116.842 131.8C117.329 131.8 117.818 131.8 118.305 131.8C118.793 131.8 119.281 131.8 119.769 131.8C119.805 132.889 119.841 133.977 119.877 135.066C119.913 136.154 119.949 137.242 119.985 138.331C120.358 138.331 120.731 138.331 121.104 138.331C121.477 138.331 121.851 138.331 122.224 138.331C122.26 137.242 122.296 136.154 122.332 135.066C122.367 133.977 122.404 132.889 122.439 131.8C122.927 131.8 123.415 131.8 123.903 131.8C124.391 131.8 124.879 131.8 125.367 131.8C125.403 132.889 125.439 133.977 125.475 135.066C125.51 136.154 125.547 137.242 125.582 138.331C125.956 138.331 126.329 138.331 126.702 138.331C127.075 138.331 127.448 138.331 127.821 138.331C127.857 137.123 127.893 135.914 127.928 134.706C128.024 131.461 127.954 131 127.266 130.312ZM134.68 116.5C134.201 115.295 132.583 113.596 131.254 112.902C130.679 112.601 129.212 112.351 127.993 112.345C121.49 112.314 118.436 118.94 123.258 122.617C126.819 125.333 132.501 124.242 134.316 120.492C135.171 118.727 135.244 117.919 134.68 116.5ZM138.742 129.734C138.459 129.625 136.222 129.584 133.771 129.642C132.285 129.677 130.8 129.713 129.314 129.748C129.278 130.913 129.242 132.078 129.206 133.243C129.123 135.94 129.234 136.944 129.689 137.64C130.265 138.519 130.387 138.538 134.648 138.436C136.105 138.401 137.561 138.366 139.017 138.331C139.017 138.02 139.017 137.709 139.017 137.398C139.017 136.474 138.982 136.464 135.378 136.358C132.525 136.275 131.74 136.137 131.74 135.719C131.74 135.301 132.525 135.163 135.378 135.079C138.982 134.974 139.017 134.963 139.017 134.039C139.017 133.115 138.982 133.105 135.378 133C132.525 132.916 131.74 132.778 131.74 132.36C131.74 131.942 132.525 131.804 135.378 131.72C138.832 131.619 139.023 131.571 139.136 130.773C139.202 130.308 139.025 129.843 138.742 129.734ZM149.666 130.321C148.99 129.645 148.434 129.561 144.603 129.561C143.168 129.561 141.734 129.561 140.3 129.561C140.335 131.023 140.369 132.484 140.404 133.946C140.44 135.408 140.475 136.869 140.51 138.331C140.883 138.331 141.256 138.331 141.629 138.331C142.002 138.331 142.376 138.331 142.749 138.331C142.785 137.242 142.821 136.154 142.857 135.066C142.892 133.977 142.929 132.889 142.964 131.8C143.763 131.8 144.562 131.8 145.361 131.8C146.16 131.8 146.959 131.8 147.758 131.8C147.793 132.889 147.83 133.977 147.866 135.066C147.901 136.154 147.938 137.242 147.973 138.331C148.347 138.331 148.72 138.331 149.093 138.331C149.466 138.331 149.839 138.331 150.212 138.331C150.248 137.123 150.284 135.914 150.319 134.706C150.414 131.475 150.343 130.998 149.666 130.321ZM161.132 129.734C160.85 129.625 158.613 129.584 156.162 129.642C154.676 129.677 153.191 129.713 151.705 129.748C151.705 130.059 151.705 130.37 151.705 130.681C151.705 131.528 151.867 131.624 153.464 131.727C154.05 131.764 154.636 131.802 155.222 131.84C155.258 132.922 155.294 134.004 155.33 135.085C155.365 136.167 155.401 137.249 155.437 138.331C155.81 138.331 156.183 138.331 156.557 138.331C156.93 138.331 157.303 138.331 157.676 138.331C157.712 137.249 157.748 136.167 157.784 135.085C157.819 134.004 157.855 132.922 157.891 131.84C158.477 131.802 159.063 131.764 159.649 131.727C161.149 131.63 161.425 131.49 161.527 130.773C161.593 130.308 161.416 129.843 161.132 129.734ZM175.915 129.826C175.77 129.68 173.832 129.561 171.608 129.561C166.945 129.561 166.073 130.002 166.073 132.36C166.073 134.554 167.041 135.159 170.551 135.159C172.923 135.159 173.536 135.271 173.536 135.705C173.536 136.14 172.794 136.273 169.898 136.358C166.294 136.464 166.259 136.474 166.259 137.398C166.259 137.709 166.259 138.02 166.259 138.331C167.69 138.367 169.12 138.403 170.551 138.439C174.56 138.54 174.885 138.494 175.496 137.745C176.383 136.655 176.336 134.6 175.402 133.666C174.78 133.044 174.158 132.92 171.67 132.92C169.298 132.92 168.685 132.808 168.685 132.374C168.685 131.939 169.427 131.806 172.323 131.72C175.661 131.622 175.971 131.551 176.071 130.852C176.131 130.433 176.061 129.971 175.915 129.826ZM186.806 129.705C185.539 129.218 184.921 129.722 184.804 131.337C184.765 131.865 184.727 132.392 184.689 132.92C183.895 132.92 183.1 132.92 182.306 132.92C181.512 132.92 180.717 132.92 179.923 132.92C179.885 132.391 179.847 131.863 179.808 131.334C179.701 129.846 179.624 129.748 178.574 129.748C177.488 129.748 177.451 129.806 177.342 131.688C177.21 133.976 178.068 135.159 179.859 135.159C180.884 135.159 180.965 135.265 181.072 136.745C181.179 138.233 181.256 138.331 182.306 138.331C183.356 138.331 183.433 138.233 183.54 136.745C183.647 135.265 183.728 135.159 184.753 135.159C186.457 135.159 187.344 134.005 187.344 131.789C187.344 130.498 187.176 129.846 186.806 129.705ZM198.306 129.826C198.161 129.68 196.222 129.561 193.999 129.561C189.336 129.561 188.464 130.002 188.464 132.36C188.464 134.554 189.432 135.159 192.942 135.159C195.314 135.159 195.927 135.271 195.927 135.705C195.927 136.14 195.185 136.273 192.289 136.358C188.685 136.464 188.65 136.474 188.65 137.398C188.65 137.709 188.65 138.02 188.65 138.331C190.081 138.367 191.511 138.403 192.942 138.439C196.951 138.54 197.276 138.494 197.886 137.745C198.774 136.655 198.727 134.6 197.793 133.666C197.171 133.044 196.549 132.92 194.061 132.92C191.689 132.92 191.076 132.808 191.076 132.374C191.076 131.939 191.818 131.806 194.714 131.72C198.052 131.622 198.362 131.551 198.462 130.852C198.522 130.433 198.452 129.971 198.306 129.826ZM209.273 129.734C208.99 129.625 206.753 129.584 204.302 129.642C202.817 129.677 201.331 129.713 199.846 129.748C199.846 130.059 199.846 130.37 199.846 130.681C199.846 131.528 200.008 131.624 201.604 131.727C202.19 131.764 202.776 131.802 203.363 131.84C203.398 132.922 203.434 134.004 203.47 135.085C203.506 136.167 203.542 137.249 203.578 138.331C203.951 138.331 204.324 138.331 204.697 138.331C205.07 138.331 205.443 138.331 205.817 138.331C205.852 137.249 205.888 136.167 205.924 135.085C205.96 134.004 205.996 132.922 206.032 131.84C206.618 131.802 207.204 131.764 207.79 131.727C209.289 131.63 209.566 131.49 209.668 130.773C209.734 130.308 209.557 129.843 209.273 129.734ZM220.468 129.734C220.186 129.625 217.949 129.584 215.498 129.642C214.012 129.677 212.527 129.713 211.041 129.748C211.005 130.913 210.969 132.078 210.933 133.243C210.85 135.94 210.961 136.944 211.416 137.64C211.992 138.519 212.114 138.538 216.375 138.436C217.832 138.401 219.288 138.366 220.744 138.331C220.744 138.02 220.744 137.709 220.744 137.398C220.744 136.474 220.709 136.464 217.105 136.358C214.252 136.275 213.467 136.137 213.467 135.719C213.467 135.301 214.252 135.163 217.105 135.079C220.709 134.974 220.744 134.963 220.744 134.039C220.744 133.115 220.709 133.105 217.105 133C214.252 132.916 213.467 132.778 213.467 132.36C213.467 131.942 214.252 131.804 217.105 131.72C220.559 131.619 220.75 131.571 220.863 130.773C220.929 130.308 220.752 129.843 220.468 129.734ZM235.116 130.312C234.393 129.589 233.982 129.549 228.292 129.645C226.273 129.68 224.255 129.713 222.237 129.748C222.237 131.178 222.237 132.609 222.237 134.039C222.237 135.47 222.237 136.901 222.237 138.331C222.61 138.331 222.983 138.331 223.356 138.331C223.729 138.331 224.103 138.331 224.476 138.331C224.512 137.242 224.548 136.154 224.584 135.066C224.619 133.977 224.656 132.889 224.691 131.8C225.179 131.8 225.667 131.8 226.155 131.8C226.643 131.8 227.131 131.8 227.619 131.8C227.654 132.889 227.691 133.977 227.727 135.066C227.762 136.154 227.799 137.242 227.834 138.331C228.208 138.331 228.581 138.331 228.954 138.331C229.327 138.331 229.7 138.331 230.073 138.331C230.109 137.242 230.145 136.154 230.181 135.066C230.217 133.977 230.253 132.889 230.289 131.8C230.777 131.8 231.265 131.8 231.753 131.8C232.241 131.8 232.729 131.8 233.216 131.8C233.252 132.889 233.288 133.977 233.324 135.066C233.36 136.154 233.396 137.242 233.432 138.331C233.805 138.331 234.178 138.331 234.552 138.331C234.925 138.331 235.298 138.331 235.671 138.331C235.707 137.123 235.742 135.914 235.778 134.706C235.873 131.461 235.804 131 235.116 130.312ZM32.3375 129.822C32.1942 129.965 32.1241 131.938 32.1819 134.207C32.217 135.581 32.2517 136.956 32.2868 138.331C32.66 138.331 33.0332 138.331 33.4063 138.331C33.7795 138.331 34.1527 138.331 34.5259 138.331C34.5617 137.242 34.5979 136.154 34.6337 135.066C34.6695 133.977 34.7058 132.889 34.7416 131.8C35.5406 131.8 36.3392 131.8 37.1382 131.8C37.9371 131.8 38.7358 131.8 39.5347 131.8C39.5706 132.889 39.6068 133.977 39.6426 135.066C39.6784 136.154 39.7146 137.242 39.7504 138.331C40.1236 138.331 40.4968 138.331 40.87 138.331C41.2432 138.331 41.6164 138.331 41.9895 138.331C42.025 137.123 42.0608 135.914 42.0963 134.706C42.2433 129.71 42.0858 129.561 36.6407 129.561C34.4173 129.561 32.4808 129.678 32.3375 129.822ZM100.474 129.63C100.066 129.591 99.6571 129.551 99.2488 129.512C99.2839 130.982 99.3193 132.452 99.3544 133.922C99.3895 135.391 99.4245 136.861 99.4596 138.331C99.8328 138.331 100.206 138.331 100.579 138.331C100.952 138.331 101.326 138.331 101.699 138.331C101.699 136.901 101.699 135.47 101.699 134.039C101.699 132.609 101.699 131.178 101.699 129.748C101.29 129.709 100.882 129.669 100.474 129.63Z" fill="white"/>
<path d="M110.723 115.076C111.09 114.158 112.723 113.812 113.691 114.445C114.502 114.977 114.573 115.276 114.573 118.129C114.573 120.664 114.448 121.348 113.891 121.852C112.94 122.713 111.737 122.623 111.049 121.641C110.482 120.83 110.254 116.248 110.723 115.076Z" fill="white"/>
<path d="M126.515 114.261C127.445 113.331 128.452 113.308 129.256 114.197C129.735 114.726 129.874 115.637 129.874 118.244C129.874 121.87 129.418 122.844 127.72 122.844C126.328 122.844 125.769 121.483 125.769 118.096C125.769 115.505 125.889 114.887 126.515 114.261Z" fill="white"/>
<path d="M79.4942 114.26C79.9047 113.85 80.5503 113.514 80.929 113.514C81.8321 113.514 82.8528 114.668 82.8528 115.689C82.8528 116.422 82.658 116.499 80.8003 116.499C78.9967 116.499 78.7478 116.409 78.7478 115.753C78.7478 115.342 79.0837 114.671 79.4942 114.26Z" fill="white"/>
<path d="M91.141 131.977C92.0273 131.637 95.3543 131.939 95.3543 132.36C95.3543 132.865 91.428 133.061 90.947 132.58C90.6861 132.319 90.7477 132.128 91.141 131.977Z" fill="white"/>
<path d="M68.7502 131.977C69.6365 131.637 72.9634 131.939 72.9634 132.36C72.9634 132.865 69.0371 133.061 68.5561 132.58C68.2952 132.319 68.3568 132.128 68.7502 131.977Z" fill="white"/>
</svg>
