<svg width="256" height="256" viewBox="0 0 256 256" fill="none" xmlns="http://www.w3.org/2000/svg">
<path d="M219.817 90C220.088 90.493 221.221 90.7419 222.511 90.8714C228.279 91.4502 235.132 95.1757 240.031 100.396C244.021 104.648 247.302 110.877 247.972 115.472C248.1 116.343 248.389 118.129 248.616 119.44C249.166 122.612 248.181 129.527 246.67 133.103C244.347 138.597 242.277 141.77 239.042 144.796C233.294 150.174 228.369 152.461 220.004 153.638C214.478 154.416 43.0153 154.419 37.7041 153.641C32.1359 152.826 30.6931 152.402 26.5087 150.353C22.9422 148.607 22.2215 148.065 18.4852 144.314C15.0139 140.829 14.1396 139.702 12.8196 137.015C10.2663 131.816 9.53408 129.111 9.08962 123.227C8.51268 115.588 12.19 105.956 18.0497 99.7587C22.2465 95.3197 29.4228 91.5898 35.3717 90.7553C36.86 90.5467 38.0773 90.2915 38.0773 90.1881C38.0773 90.1254 38.0773 90.0627 38.0773 90C98.6571 90 159.237 90 219.817 90ZM72.0369 101.942C72.0369 101.152 71.6887 100.48 71.2633 99.9397C71.0054 99.6121 70.7479 99.284 70.4901 98.9564C62.9966 98.9564 55.5034 98.9564 48.0099 98.9564C26.262 98.9564 25.5048 98.9799 24.7513 99.6818C24.3233 100.081 23.8714 100.585 23.7479 100.801C23.6729 100.933 23.5982 101.064 23.5232 101.195C23.5232 114.875 23.5232 128.554 23.5232 142.234C23.8863 142.64 24.249 143.046 24.6121 143.452C24.9752 143.859 25.338 144.265 25.7011 144.671C33.0375 144.671 40.3739 144.671 47.7103 144.671C68.1233 144.671 69.7766 144.624 70.505 144.018C70.767 143.801 71.0286 143.583 71.2906 143.365C71.4861 142.899 71.6817 142.432 71.8772 141.966C72.3948 140.731 72.4388 138.293 72.0369 101.942ZM95.3608 121.347C93.8058 121.347 92.2511 121.347 90.696 121.347C90.696 122.094 90.696 122.84 90.696 123.586C90.696 124.333 90.696 125.079 90.696 125.826C91.4424 125.826 92.1888 125.826 92.9351 125.826C93.6815 125.826 94.4279 125.826 95.1742 125.826C95.1742 126.507 95.1742 127.189 95.1742 127.871C95.1742 129.763 95.1018 129.935 94.2021 130.16C92.9512 130.474 88.6846 130.079 87.7129 129.558C86.1615 128.728 85.6951 127.413 85.676 123.817C85.6562 120.04 86.0955 118.746 87.8334 117.462C88.7831 116.761 89.3944 116.684 93.9133 116.692C95.5881 116.695 97.2626 116.698 98.9374 116.701C98.9012 115.957 98.8646 115.213 98.8284 114.468C98.7922 113.724 98.7557 112.979 98.7195 112.235C98.222 112.128 97.7242 112.021 97.2267 111.914C95.2769 111.496 87.5471 111.798 85.7413 112.363C83.8052 112.97 81.7609 114.86 80.8742 116.864C79.4472 120.09 79.6398 127.566 81.2366 130.931C83.0201 134.689 91.1943 136.256 98.1862 134.18C98.7993 133.997 99.4125 133.816 100.026 133.634C100.026 131.586 100.026 129.538 100.026 127.49C100.026 125.443 100.026 123.395 100.026 121.347C98.4706 121.347 96.9159 121.347 95.3608 121.347ZM125.379 118.217C124.899 116.279 123.698 114.227 122.545 113.375C120.268 111.692 113.27 111.076 109.417 112.22C105.003 113.531 103.587 116.247 103.588 123.4C103.589 131.384 105.194 133.727 111.4 134.808C113.998 135.26 117.647 135.076 120.351 134.357C122.218 133.86 124.431 131.677 125.036 129.735C125.623 127.852 125.852 120.13 125.379 118.217ZM144.248 121.347C142.693 121.347 141.138 121.347 139.583 121.347C139.583 122.094 139.583 122.84 139.583 123.586C139.583 124.333 139.583 125.079 139.583 125.826C140.329 125.826 141.076 125.826 141.822 125.826C142.568 125.826 143.315 125.826 144.061 125.826C144.061 126.507 144.061 127.189 144.061 127.871C144.061 129.763 143.989 129.935 143.089 130.16C141.838 130.474 137.572 130.079 136.6 129.558C135.048 128.728 134.582 127.413 134.563 123.817C134.543 120.04 134.982 118.746 136.72 117.462C137.67 116.761 138.281 116.684 142.8 116.692C144.475 116.695 146.149 116.698 147.824 116.701C147.788 115.955 147.752 115.208 147.715 114.462C147.679 113.715 147.643 112.969 147.606 112.222C147.047 112.12 146.487 112.018 145.927 111.916C143.685 111.508 136.412 111.809 134.546 112.388C132.364 113.065 130.091 115.51 129.362 117.966C128.154 122.034 128.834 129.278 130.665 131.851C132.844 134.911 140.766 136.053 146.993 134.203C147.633 134.014 148.273 133.824 148.913 133.634C148.913 131.586 148.913 129.538 148.913 127.49C148.913 125.443 148.913 123.395 148.913 121.347C147.357 121.347 145.803 121.347 144.248 121.347ZM159.11 130.24C158.895 129.428 156.547 129.03 153.916 129.359C153.243 129.443 152.57 129.527 151.898 129.611C151.898 130.457 151.898 131.303 151.898 132.148C151.898 132.994 151.898 133.84 151.898 134.686C152.495 134.765 153.093 134.844 153.69 134.923C156.503 135.297 158.883 134.848 159.138 133.896C159.376 133.011 159.362 131.192 159.11 130.24ZM178.706 112.167C178.467 112.019 176.233 111.82 173.741 111.724C168.102 111.507 165.623 112.096 163.895 114.064C162.218 115.974 161.788 117.881 161.79 123.4C161.792 130.736 162.997 133.331 166.935 134.47C168.746 134.994 174.771 135.106 177.368 134.664C177.958 134.564 178.55 134.463 179.14 134.363C179.14 133.624 179.14 132.884 179.14 132.145C179.14 131.406 179.14 130.666 179.14 129.927C177.927 130.004 176.715 130.082 175.502 130.16C169.008 130.576 167.753 129.746 167.54 124.893C167.313 119.745 167.467 118.782 168.712 117.537C169.092 117.157 169.472 116.777 169.853 116.397C171.4 116.456 172.948 116.516 174.496 116.576C176.044 116.636 177.592 116.695 179.14 116.755C179.14 116.035 179.14 115.315 179.14 114.595C179.14 113.356 178.955 112.32 178.706 112.167ZM203.886 119.855C203.8 119.341 203.488 118.058 203.191 117.002C202.17 113.362 198.886 111.641 192.974 111.649C187.246 111.657 184.363 112.901 182.837 116.024C182.056 117.622 181.966 118.331 181.953 123.027C181.937 129.056 182.461 131.03 184.566 132.878C186.722 134.771 191.573 135.58 196.147 134.809C201.048 133.982 202.971 132.086 203.745 127.317C204.131 124.934 204.193 121.691 203.886 119.855ZM229.659 112.1C228.089 112.135 226.518 112.17 224.948 112.204C224.715 113.075 224.482 113.946 224.25 114.817C223.468 117.744 221.899 123.934 221.508 125.631C221.301 126.534 220.909 125.411 219.423 119.66C218.417 115.765 217.591 112.451 217.586 112.298C217.582 112.144 215.395 112.018 212.727 112.018C211.11 112.018 209.492 112.018 207.875 112.018C207.875 115.812 207.875 119.606 207.875 123.4C207.875 127.194 207.875 130.988 207.875 134.782C208.746 134.782 209.617 134.782 210.488 134.782C211.358 134.782 212.229 134.782 213.1 134.782C213.1 131.958 213.1 129.135 213.1 126.311C213.1 121.155 213.234 117.978 213.443 118.194C213.631 118.389 214.744 121.949 215.915 126.105C216.626 128.624 217.335 131.143 218.045 133.662C219.081 133.662 220.117 133.662 221.153 133.662C222.188 133.662 223.224 133.662 224.26 133.662C224.373 133.258 224.485 132.854 224.598 132.45C227.151 123.273 228.572 118.484 228.831 118.194C229.005 117.999 229.147 121.651 229.147 126.311C229.147 129.135 229.147 131.958 229.147 134.782C230.017 134.782 230.888 134.782 231.759 134.782C232.63 134.782 233.501 134.782 234.371 134.782C234.371 130.984 234.371 127.187 234.371 123.389C234.371 119.591 234.371 115.793 234.371 111.995C232.801 112.03 231.23 112.065 229.659 112.1Z" fill="white"/>
<path d="M55.6165 107.913C57.1286 106.869 58.2071 106.776 61.8676 106.866C64.3822 106.929 66.4395 107.106 66.4391 107.259C66.4391 107.353 66.4388 107.446 66.4388 107.539C67.0094 108.553 67.0411 120.959 66.4761 122.048C66.3392 122.312 66.2025 122.576 66.0656 122.84C62.5674 122.84 59.0695 122.84 55.5713 122.84C55.6101 122.373 55.6486 121.907 55.6874 121.44C55.7258 120.974 55.7643 120.507 55.8031 120.041C57.1715 120.005 58.5396 119.969 59.9081 119.933C61.2765 119.898 62.6446 119.862 64.0131 119.826C63.9821 118.276 63.9508 116.726 63.9198 115.175C63.8888 113.625 63.8575 112.075 63.8265 110.525C62.3976 109.584 59.9969 109.334 58.9023 110.01C58.737 110.112 58.6019 111.295 58.6019 112.64C58.6019 113.455 58.6019 114.27 58.6019 115.084C59.255 115.164 59.9081 115.244 60.5611 115.324C62.436 115.552 62.5204 115.611 62.5204 116.682C62.5204 117.055 62.5204 117.429 62.5204 117.802C61.4941 117.771 60.4679 117.74 59.4416 117.709C58.4153 117.678 57.3891 117.646 56.3628 117.615C55.7934 116.892 55.625 114.709 55.622 112.297C55.6202 110.836 55.6183 109.374 55.6165 107.913Z" fill="white"/>
<path d="M109.394 121.039C109.551 119.397 109.846 118.451 110.364 117.933C112.005 116.293 116.747 116.202 118.576 117.775C119.759 118.793 120.28 121.629 119.941 125.213C119.592 128.91 118.846 129.669 115.364 129.865C112.399 130.033 110.695 129.533 110.01 128.294C109.407 127.205 109.124 123.865 109.394 121.039Z" fill="white"/>
<path d="M54.2069 126.033C55.444 125.166 66.6261 125.175 66.9589 126.042C67.0836 126.367 67.1854 128.723 67.1854 131.279C67.1854 135.756 67.1548 135.936 66.3458 136.238C65.8838 136.41 65.1702 136.428 64.7597 136.277C64.0903 136.032 64.0022 135.611 63.9067 132.197C63.8712 130.928 63.8357 129.659 63.8003 128.39C63.4626 128.429 63.1249 128.468 62.7871 128.507C61.7751 128.624 61.7743 128.627 61.5877 132.356C61.5254 133.6 61.4634 134.844 61.4011 136.088C60.9656 136.088 60.5305 136.088 60.095 136.088C59.6595 136.088 59.2243 136.088 58.7888 136.088C58.7534 134.812 58.718 133.538 58.6825 132.262C58.6471 130.987 58.6115 129.712 58.5761 128.437C58.2074 128.437 57.8384 128.437 57.4697 128.437C56.6722 128.437 56.3576 128.62 56.343 129.09C56.3318 129.45 56.29 131.171 56.2497 132.915C56.2255 133.973 56.2008 135.03 56.1766 136.088C55.7101 136.126 55.2436 136.165 54.7771 136.203C54.3106 136.242 53.8442 136.281 53.3777 136.319C53.3777 134.702 53.3777 133.084 53.3777 131.466C53.3777 126.875 53.4221 126.583 54.2069 126.033Z" fill="white"/>
<path d="M187.892 119.362C188.172 118.577 188.706 117.712 189.079 117.439C190.446 116.44 194.554 116.365 196.396 117.306C197.65 117.947 198.173 119.664 198.173 123.139C198.173 128.845 197.284 129.931 192.614 129.931C189.497 129.931 188.261 129.131 187.713 126.759C187.215 124.605 187.302 121.015 187.892 119.362Z" fill="white"/>
<path d="M40.7167 126.436C41.4706 125.477 41.5963 125.452 45.6965 125.452C51.2121 125.452 51.1386 125.375 51.1386 131.127C51.1386 134.677 51.03 135.527 50.5229 135.949C50.109 136.293 48.5831 136.502 45.8738 136.587C41.9725 136.709 41.8094 136.682 40.8917 135.764C40.0032 134.876 39.9431 134.581 39.9431 131.117C39.9431 127.941 40.0525 127.28 40.7167 126.436ZM48.018 128.593C47.7385 128.485 46.5212 128.448 45.3124 128.511C44.5799 128.548 43.8477 128.587 43.1152 128.624C43.1152 129.433 43.1152 130.241 43.1152 131.05C43.1152 131.859 43.1152 132.667 43.1152 133.476C43.9123 133.513 44.7098 133.551 45.5069 133.588C47.1679 133.667 47.993 133.552 48.2069 133.215C48.7331 132.386 48.5871 128.811 48.018 128.593Z" fill="white"/>
<path d="M53.3687 108.403C53.546 108.852 53.6273 110.73 53.55 112.577C53.4728 114.425 53.4023 116.134 53.3937 116.376C53.3851 116.618 53.1138 117.08 52.791 117.402C52.3253 117.868 51.3136 117.988 47.8759 117.988C42.099 117.988 42.1822 118.068 42.1822 112.519C42.1822 106.853 42.2396 106.793 47.6179 106.793C51.795 106.793 52.8493 107.088 53.3687 108.403ZM45.6785 109.932C45.0262 110.183 44.9743 114.287 45.6155 114.928C46.1219 115.435 49.2051 115.526 49.9451 115.057C50.2825 114.843 50.3967 114.018 50.3183 112.357C50.2806 111.56 50.2433 110.762 50.2056 109.965C49.5361 109.927 48.867 109.889 48.1975 109.85C47.0932 109.787 45.9595 109.824 45.6785 109.932Z" fill="white"/>
<path d="M28.7477 122.467C28.81 121.658 28.872 120.85 28.9343 120.041C30.2763 120.006 31.6186 119.971 32.9606 119.935C34.3026 119.9 35.6448 119.865 36.9868 119.829C36.9976 118.292 37.0089 116.755 37.0197 115.218C37.0376 112.682 36.9368 110.42 36.7961 110.192C36.5002 109.714 32.9016 109.641 32.1791 110.099C31.8455 110.31 31.728 111.101 31.806 112.612C31.844 113.347 31.8817 114.082 31.9198 114.817C32.4668 114.879 33.0139 114.941 33.561 115.003C35.4265 115.215 36.0636 115.92 35.6993 117.371C35.4601 118.325 35.3538 118.362 32.8456 118.362C28.9697 118.362 28.7477 118.042 28.7477 112.449C28.7477 106.683 28.6362 106.793 34.4683 106.793C40.6534 106.793 40.4055 106.435 40.1458 115.019C40.0783 117.253 40.0107 119.487 39.9432 121.72C39.1561 122.77 38.2769 122.829 33.9181 122.663C32.1948 122.598 30.4711 122.532 28.7477 122.467Z" fill="white"/>
<path d="M29.445 126.056C30.0242 125.532 30.8004 125.443 34.0165 125.532C35.3077 125.567 36.5993 125.603 37.8905 125.638C37.8905 126.074 37.8905 126.509 37.8905 126.944C37.8905 127.38 37.8905 127.815 37.8905 128.251C36.8587 128.287 35.8269 128.323 34.795 128.359C33.7632 128.395 32.7312 128.432 31.6994 128.468C31.736 129.302 31.773 130.137 31.8095 130.971C31.8461 131.806 31.883 132.641 31.9196 133.475C32.9149 133.537 33.9098 133.599 34.9051 133.662C35.9003 133.724 36.8953 133.786 37.8905 133.848C37.9293 134.248 37.9678 134.648 38.0066 135.048C38.1059 136.075 37.9815 136.284 37.146 136.493C36.609 136.628 34.7281 136.663 32.9667 136.571C28.8013 136.352 28.7476 136.279 28.7476 130.849C28.7476 127.258 28.8434 126.6 29.445 126.056Z" fill="white"/>
</svg>
