<svg width="256" height="256" viewBox="0 0 256 256" fill="none" xmlns="http://www.w3.org/2000/svg">
<path d="M38.4503 165.019C37.4382 164.519 36.1515 164.252 34.9383 164.103C33.7251 163.953 32.4656 163.698 32.1395 163.536C31.8133 163.373 30.5388 162.858 29.3073 162.391C21.0697 159.263 14.4551 151.897 11.3778 142.422C10.3866 139.371 10.2922 138.616 10.284 133.672C10.2743 127.864 10.5217 126.494 12.4395 121.73C16.5456 111.53 25.1713 104.589 36.2784 102.547C39.1854 102.012 48.6314 101.951 128.454 101.952C223.482 101.952 219.014 101.873 224.964 103.672C231.619 105.686 238.456 110.994 241.951 116.861C243.224 118.998 245.077 123.442 246.004 126.581C246.313 127.627 246.5 130.233 246.5 133.485C246.5 139.009 246.33 139.926 244.363 145.054C240.462 155.22 231.188 162.768 220.789 164.241C219.433 164.433 218.324 164.687 218.324 164.805C218.324 164.876 218.324 164.947 218.324 165.019C158.366 165.019 98.4084 165.019 38.4503 165.019ZM86.5591 128.729C85.7486 123.195 82.6228 117.096 78.3808 112.769C74.9614 109.282 71.1277 106.868 66.439 105.25C63.0565 104.083 62.637 104.026 57.296 104.015C51.0564 104.003 48.4982 104.56 43.6905 106.981C35.2174 111.248 28.8125 120.107 27.7669 129.004C27.6877 129.678 27.6083 130.352 27.5292 131.025C28.1986 131.32 28.8684 131.615 29.5379 131.91C30.6426 132.397 34.1337 133.856 37.296 135.153C42.8344 137.424 43.0953 137.493 44.3865 137.014C45.1239 136.741 46.3954 136.423 47.2119 136.308C48.6315 136.107 48.8461 135.881 52.1174 131.133C54.7942 127.248 55.595 125.787 55.7995 124.416C56.3948 120.426 58.5223 117.516 62.1511 115.729C64.3805 114.632 64.7783 114.556 67.4592 114.715C72.0385 114.986 75.0009 116.907 76.9519 120.87C79.2798 125.599 78.3402 130.436 74.3923 134.044C72.4107 135.855 69.7712 137.03 67.6851 137.03C67.2014 137.03 64.6399 138.58 61.8134 140.582C56.9766 144.007 56.7907 144.189 56.5456 145.713C55.1916 154.127 44.3421 155.79 40.5423 148.165C40.2222 147.522 39.902 146.88 39.5818 146.238C37.8178 145.511 36.0534 144.785 34.2894 144.059C31.3785 142.861 28.9222 141.956 28.8304 142.048C28.5352 142.343 29.8137 145.633 31.1389 147.989C34.9368 154.742 41.1148 159.643 48.9154 162.093C51.3262 162.849 52.4469 162.965 57.296 162.955C62.637 162.944 63.0565 162.887 66.439 161.72C80.4412 156.887 88.7001 143.346 86.5591 128.729ZM120.877 137.404C120.02 135.253 118.29 134.1 113.053 132.189C109.486 130.887 108.609 130.216 108.609 128.789C108.609 126.319 112.213 125.473 116.27 126.991C117.421 127.422 118.413 127.715 118.474 127.644C119.267 126.713 120.426 124.375 120.237 124.085C119.509 122.968 115.374 121.741 112.315 121.734C106.22 121.721 102.444 125.235 103.192 130.222C103.573 132.765 105.386 134.508 109.104 135.909C113.895 137.714 114.973 138.237 115.349 138.939C115.951 140.064 115.736 141.052 114.716 141.855C113.409 142.883 109.29 142.904 106.374 141.897C105.247 141.508 104.296 141.219 104.261 141.256C104.225 141.292 103.864 142.196 103.459 143.266C103.213 143.913 102.967 144.562 102.721 145.209C103.001 145.393 103.281 145.576 103.56 145.759C105.376 146.949 108.602 147.569 112.115 147.404C115.744 147.234 117.719 146.521 119.32 144.805C121.068 142.931 121.764 139.626 120.877 137.404ZM135.485 122.103C132.128 122.103 128.772 122.103 125.416 122.103C125.342 122.397 125.269 122.691 125.195 122.985C125.073 123.469 125.028 124.435 125.094 125.13C125.135 125.552 125.175 125.973 125.215 126.395C126.49 126.43 127.765 126.466 129.04 126.501C130.316 126.536 131.59 126.572 132.865 126.607C132.865 130.024 132.865 133.44 132.865 136.857C132.865 140.273 132.865 143.69 132.865 147.106C133.736 147.106 134.607 147.106 135.478 147.106C136.348 147.106 137.219 147.106 138.09 147.106C138.09 143.685 138.09 140.265 138.09 136.844C138.09 133.423 138.09 130.002 138.09 126.581C139.334 126.581 140.578 126.581 141.822 126.581C143.066 126.581 144.31 126.581 145.554 126.581C145.554 125.835 145.554 125.089 145.554 124.342C145.554 123.596 145.554 122.849 145.554 122.103C142.197 122.103 138.841 122.103 135.485 122.103ZM168.388 122.562C168.149 122.198 166.188 122.111 159.895 122.189C157.167 122.223 154.439 122.256 151.711 122.29C151.678 126.428 151.646 130.567 151.613 134.705C151.58 138.844 151.547 142.982 151.514 147.121C154.346 147.087 157.178 147.054 160.01 147.02C162.841 146.987 165.673 146.953 168.504 146.92C168.504 146.236 168.504 145.551 168.504 144.867C168.504 144.183 168.504 143.499 168.504 142.815C166.54 142.78 164.576 142.746 162.611 142.712C160.647 142.677 158.683 142.643 156.718 142.609C156.754 141.648 156.791 140.687 156.827 139.726C156.863 138.765 156.9 137.805 156.936 136.844C158.59 136.809 160.244 136.774 161.899 136.74C163.553 136.705 165.207 136.67 166.862 136.635C166.824 135.924 166.787 135.212 166.75 134.501C166.713 133.789 166.676 133.077 166.638 132.366C164.985 132.331 163.331 132.296 161.678 132.261C160.024 132.227 158.371 132.192 156.717 132.157C156.754 131.259 156.79 130.361 156.826 129.463C156.863 128.564 156.899 127.666 156.936 126.768C158.864 126.706 160.792 126.644 162.72 126.581C164.648 126.519 166.576 126.457 168.504 126.395C168.537 125.835 168.569 125.275 168.601 124.715C168.655 123.792 168.559 122.823 168.388 122.562ZM194.195 138.523C192.465 134.11 190.333 128.652 189.456 126.395C188.925 125.026 188.394 123.658 187.862 122.29C186.979 122.253 186.096 122.217 185.213 122.181C184.33 122.145 183.447 122.108 182.564 122.072C182.292 122.792 182.021 123.513 181.749 124.233C181.3 125.422 179.582 130.005 177.93 134.418C174.871 142.587 173.846 145.288 173.361 146.453C173.116 147.041 173.367 147.106 175.855 147.106C176.776 147.106 177.698 147.106 178.619 147.106C178.849 146.453 179.079 145.8 179.308 145.147C180.371 142.124 180.16 142.221 185.445 142.337C187.012 142.372 188.58 142.407 190.147 142.442C190.411 143.188 190.675 143.934 190.939 144.681C191.204 145.427 191.467 146.173 191.732 146.92C192.681 146.956 193.63 146.993 194.579 147.029C196.145 147.089 197.407 147.005 197.383 146.842C197.359 146.679 195.924 142.936 194.195 138.523ZM203.024 145.987C203.024 146.987 203.542 147.106 205.449 147.106C206.258 147.106 207.066 147.106 207.875 147.106C207.875 144.743 207.875 142.379 207.875 140.016C207.875 136.116 208.002 132.925 208.157 132.925C208.312 132.925 209.816 135.906 211.501 139.549C212.521 141.757 213.543 143.965 214.563 146.173C215.046 146.211 215.527 146.248 216.009 146.285C216.875 146.352 217.606 146.202 217.831 145.912C218.038 145.645 219.521 142.614 221.127 139.176C222.733 135.738 224.187 132.925 224.357 132.925C224.528 132.925 224.668 136.116 224.668 140.016C224.668 142.379 224.668 144.743 224.668 147.106C225.477 147.106 226.285 147.106 227.094 147.106C227.903 147.106 228.711 147.106 229.52 147.106C229.52 142.939 229.52 138.772 229.52 134.605C229.52 130.437 229.52 126.27 229.52 122.103C228.703 122.103 227.886 122.103 227.07 122.103C226.253 122.103 225.436 122.103 224.62 122.103C224.179 123.067 223.738 124.031 223.297 124.995C222.569 126.586 221.521 128.895 220.968 130.127C217.412 138.044 216.609 139.643 216.186 139.643C215.925 139.643 215.712 139.469 215.712 139.257C215.712 138.724 207.952 122.103 207.703 122.103C207.636 122.103 207.569 122.103 207.502 122.103C206.009 122.103 204.516 122.103 203.024 122.103C203.024 130.064 203.024 138.026 203.024 145.987ZM43.1699 147.853C42.4922 147.853 43.099 148.718 44.4772 149.716C47.516 151.918 51.8576 150.873 53.6295 147.514C54.7185 145.45 54.7259 143.985 53.6575 141.871C52.5335 139.645 50.7948 138.523 48.471 138.523C47.475 138.523 46.6659 138.649 46.6726 138.803C46.6793 138.957 47.6829 139.533 48.9021 140.084C51.6013 141.303 52.7555 142.861 52.5021 144.943C52.2626 146.908 51.0005 148.499 49.2674 149.018C48.0057 149.396 47.5082 149.346 45.6095 148.654C44.4007 148.213 43.3028 147.853 43.1699 147.853ZM59.9378 123.532C59.0515 126.416 59.9042 129.413 62.1787 131.41C66.9122 135.566 74.2758 132.197 74.2758 125.874C74.2758 123.603 73.7926 122.249 72.4793 120.843C70.5921 118.822 67.9112 118.021 64.9925 118.605C63.1494 118.973 60.5644 121.493 59.9378 123.532Z" fill="white"/>
<path d="M72.3995 124.41C72.7913 126.154 72.4606 127.684 71.378 129.139C68.2101 133.395 61.4443 131.119 61.4443 125.796C61.4443 123.732 62.2015 122.434 64.1966 121.076C67.1044 119.097 71.6176 120.931 72.3995 124.41Z" fill="white"/>
<path d="M183.33 133.195C184.171 130.778 185.018 128.853 185.213 128.918C185.531 129.024 188.47 137.072 188.47 137.837C188.47 138.009 186.958 138.151 185.111 138.151C183.264 138.151 181.764 138.025 181.777 137.871C181.79 137.717 182.489 135.613 183.33 133.195Z" fill="white"/>
</svg>
